<?xml version="1.0" standalone="no"?>
<!DOCTYPE svg PUBLIC "-//W3C//DTD SVG 20010904//EN"
 "http://www.w3.org/TR/2001/REC-SVG-20010904/DTD/svg10.dtd">
<svg version="1.0" xmlns="http://www.w3.org/2000/svg"
 width="200.000000pt" height="200.000000pt" viewBox="0 0 200.000000 200.000000"
 preserveAspectRatio="xMidYMid meet">

<g transform="translate(0.000000,200.000000) scale(0.100000,-0.100000)"
fill="#000000" stroke="none">
<path d="M685 1545 c-138 -31 -251 -95 -296 -168 -29 -48 -24 -70 36 -157 30
-44 59 -99 66 -123 27 -104 87 -100 108 8 6 28 17 88 25 134 27 145 77 231
157 266 38 17 47 29 32 38 -22 13 -75 14 -128 2z"/>
<path d="M1203 1550 c-33 -13 -28 -24 16 -45 81 -36 129 -120 156 -270 31
-175 46 -215 81 -215 18 0 42 37 55 82 5 21 34 74 64 118 60 87 65 109 36 157
-47 76 -159 138 -303 168 -79 17 -75 17 -105 5z"/>
<path d="M772 1224 c-27 -19 -29 -64 -4 -87 26 -24 68 -21 86 5 21 30 20 54
-4 78 -24 24 -48 25 -78 4z"/>
<path d="M1150 1220 c-24 -24 -25 -48 -4 -78 19 -27 64 -29 87 -4 24 26 21 68
-5 86 -30 21 -54 20 -78 -4z"/>
<path d="M913 985 c-53 -23 -43 -59 32 -115 43 -32 46 -37 43 -74 -2 -33 -9
-43 -36 -59 -18 -11 -51 -23 -73 -28 -106 -24 -199 61 -199 182 0 32 -3 39
-20 39 -17 0 -20 -7 -20 -50 0 -90 46 -165 125 -201 22 -10 52 -19 68 -19 26
0 27 -2 27 -55 0 -64 18 -105 58 -133 46 -33 91 -36 142 -10 55 28 80 73 80
146 0 50 1 52 28 52 15 0 45 9 67 19 79 36 125 111 125 201 0 43 -3 50 -20 50
-17 0 -20 -7 -20 -42 0 -51 -27 -114 -63 -146 -51 -48 -139 -49 -214 -2 -28
17 -33 25 -33 59 0 29 6 43 23 54 47 32 87 77 87 97 0 44 -135 67 -207 35z
m87 -370 c10 0 16 13 18 42 l3 42 35 -16 c34 -17 34 -17 34 -84 0 -61 -3 -70
-26 -88 -36 -29 -95 -28 -128 2 -21 18 -25 33 -28 85 l-3 64 35 18 35 18 5
-41 c3 -28 10 -42 20 -42z"/>
<path d="M806 861 c-4 -5 -2 -12 3 -15 5 -4 12 -2 15 3 4 5 2 12 -3 15 -5 4
-12 2 -15 -3z"/>
<path d="M1176 861 c-4 -5 -2 -12 3 -15 5 -4 12 -2 15 3 4 5 2 12 -3 15 -5 4
-12 2 -15 -3z"/>
<path d="M770 820 c0 -5 5 -10 10 -10 6 0 10 5 10 10 0 6 -4 10 -10 10 -5 0
-10 -4 -10 -10z"/>
<path d="M840 820 c0 -5 5 -10 10 -10 6 0 10 5 10 10 0 6 -4 10 -10 10 -5 0
-10 -4 -10 -10z"/>
<path d="M1140 820 c0 -5 5 -10 10 -10 6 0 10 5 10 10 0 6 -4 10 -10 10 -5 0
-10 -4 -10 -10z"/>
<path d="M1210 820 c0 -5 5 -10 10 -10 6 0 10 5 10 10 0 6 -4 10 -10 10 -5 0
-10 -4 -10 -10z"/>
<path d="M800 790 c0 -5 7 -10 16 -10 8 0 12 5 9 10 -3 6 -10 10 -16 10 -5 0
-9 -4 -9 -10z"/>
<path d="M1175 790 c-3 -5 1 -10 9 -10 9 0 16 5 16 10 0 6 -4 10 -9 10 -6 0
-13 -4 -16 -10z"/>
</g>
</svg>
